<mxfile host="app.diagrams.net" modified="2022-01-27T05:35:41.643Z" agent="5.0 (Windows)" etag="ZU5O1el95ZtCSdoAF3wn" version="16.4.7" type="github">
  <diagram id="6a731a19-8d31-9384-78a2-239565b7b9f0" name="Page-1">
    <mxGraphModel dx="2480" dy="1694" grid="1" gridSize="10" guides="1" tooltips="1" connect="1" arrows="1" fold="1" page="1" pageScale="1" pageWidth="1169" pageHeight="827" background="none" math="0" shadow="0">
      <root>
        <mxCell id="0" />
        <mxCell id="1" parent="0" />
        <mxCell id="1359" style="endArrow=none;strokeWidth=6;strokeColor=#1699D3;html=1;" parent="1" source="1515" target="U5FQTq4M9IftU0lJJ3o1-1551" edge="1">
          <mxGeometry relative="1" as="geometry">
            <mxPoint x="627.2722322484051" y="372.5364677328798" as="targetPoint" />
          </mxGeometry>
        </mxCell>
        <mxCell id="1361" style="endArrow=none;strokeWidth=6;strokeColor=#E85642;html=1;entryX=0;entryY=0.5;entryDx=0;entryDy=0;" parent="1" source="1515" target="U5FQTq4M9IftU0lJJ3o1-1542" edge="1">
          <mxGeometry relative="1" as="geometry" />
        </mxCell>
        <mxCell id="1363" style="endArrow=none;strokeWidth=6;strokeColor=#736CA8;html=1;" parent="1" source="1515" target="U5FQTq4M9IftU0lJJ3o1-1550" edge="1">
          <mxGeometry relative="1" as="geometry">
            <mxPoint x="740" y="800" as="targetPoint" />
          </mxGeometry>
        </mxCell>
        <mxCell id="1365" value="" style="edgeStyle=none;endArrow=none;strokeWidth=6;strokeColor=#F08705;html=1;" parent="1" source="1515" target="U5FQTq4M9IftU0lJJ3o1-1552" edge="1">
          <mxGeometry x="181" y="226.5" width="100" height="100" as="geometry">
            <mxPoint x="181" y="326.5" as="sourcePoint" />
            <mxPoint x="1210.2391275618857" y="1310.4837692413366" as="targetPoint" />
          </mxGeometry>
        </mxCell>
        <mxCell id="1366" value="" style="edgeStyle=none;endArrow=none;strokeWidth=6;strokeColor=#E85642;html=1;" parent="1" source="1515" target="U5FQTq4M9IftU0lJJ3o1-1547" edge="1">
          <mxGeometry x="181" y="226.5" width="100" height="100" as="geometry">
            <mxPoint x="181" y="326.5" as="sourcePoint" />
            <mxPoint x="780" y="1090" as="targetPoint" />
          </mxGeometry>
        </mxCell>
        <mxCell id="1515" value="windows服务器" style="ellipse;whiteSpace=wrap;html=1;shadow=0;fontFamily=Helvetica;fontSize=30;fontColor=#2F5B7C;align=center;strokeColor=#2F5B7C;strokeWidth=6;fillColor=#FFFFFF;fontStyle=1;gradientColor=none;" parent="1" vertex="1">
          <mxGeometry x="961" y="676.5" width="270" height="270" as="geometry" />
        </mxCell>
        <mxCell id="U5FQTq4M9IftU0lJJ3o1-1542" value="linux" style="ellipse;whiteSpace=wrap;html=1;shadow=0;fontFamily=Helvetica;fontSize=30;fontColor=#2F5B7C;align=center;strokeColor=#2F5B7C;strokeWidth=6;fillColor=#FFFFFF;fontStyle=1;gradientColor=none;" vertex="1" parent="1">
          <mxGeometry x="1470" y="676.5" width="270" height="270" as="geometry" />
        </mxCell>
        <mxCell id="U5FQTq4M9IftU0lJJ3o1-1546" value="nginx" style="rounded=1;whiteSpace=wrap;html=1;fontSize=30;strokeWidth=20;fillColor=#f8cecc;strokeColor=#b85450;gradientColor=none;" vertex="1" parent="1">
          <mxGeometry x="170" y="1171.5" width="248" height="110" as="geometry" />
        </mxCell>
        <mxCell id="U5FQTq4M9IftU0lJJ3o1-1547" value="薪莫愁工资云代发管理后台" style="rounded=0;whiteSpace=wrap;html=1;fontSize=30;strokeWidth=20;fillColor=#fff2cc;strokeColor=#d6b656;" vertex="1" parent="1">
          <mxGeometry x="521.5" y="958.5" width="402" height="103" as="geometry" />
        </mxCell>
        <mxCell id="U5FQTq4M9IftU0lJJ3o1-1549" value="" style="endArrow=none;html=1;rounded=0;fontFamily=Georgia;fontSize=12;exitX=1;exitY=0.5;exitDx=0;exitDy=0;entryX=0.5;entryY=1;entryDx=0;entryDy=0;" edge="1" parent="1" source="U5FQTq4M9IftU0lJJ3o1-1546" target="U5FQTq4M9IftU0lJJ3o1-1547">
          <mxGeometry width="50" height="50" relative="1" as="geometry">
            <mxPoint x="630" y="1130" as="sourcePoint" />
            <mxPoint x="680" y="1080" as="targetPoint" />
          </mxGeometry>
        </mxCell>
        <mxCell id="U5FQTq4M9IftU0lJJ3o1-1550" value="专户余额同步定时器" style="rounded=1;whiteSpace=wrap;html=1;fontFamily=Georgia;fontSize=30;strokeWidth=20;fillColor=#e1d5e7;strokeColor=#9673a6;shadow=1;" vertex="1" parent="1">
          <mxGeometry x="923.5" y="1270" width="360" height="110" as="geometry" />
        </mxCell>
        <mxCell id="U5FQTq4M9IftU0lJJ3o1-1551" value="专户余额校验服务" style="rounded=1;whiteSpace=wrap;html=1;shadow=1;fontFamily=Georgia;fontSize=30;strokeWidth=20;fillColor=#d5e8d4;strokeColor=#82b366;" vertex="1" parent="1">
          <mxGeometry x="510" y="490" width="367.27" height="112.54" as="geometry" />
        </mxCell>
        <mxCell id="U5FQTq4M9IftU0lJJ3o1-1552" value="前置加密机" style="rounded=0;whiteSpace=wrap;html=1;shadow=1;fontFamily=Georgia;fontSize=30;strokeWidth=20;fillColor=#60a917;fontColor=#ffffff;strokeColor=#2D7600;" vertex="1" parent="1">
          <mxGeometry x="510" y="727" width="340.24" height="99.52" as="geometry" />
        </mxCell>
        <mxCell id="U5FQTq4M9IftU0lJJ3o1-1553" value="" style="shape=flexArrow;endArrow=classic;html=1;rounded=0;fontFamily=Georgia;fontSize=30;entryX=0;entryY=0.5;entryDx=0;entryDy=0;exitX=1;exitY=0.3333333333333333;exitDx=0;exitDy=0;exitPerimeter=0;" edge="1" parent="1" source="U5FQTq4M9IftU0lJJ3o1-1556" target="U5FQTq4M9IftU0lJJ3o1-1552">
          <mxGeometry width="50" height="50" relative="1" as="geometry">
            <mxPoint x="560" y="1550" as="sourcePoint" />
            <mxPoint x="680" y="1260" as="targetPoint" />
          </mxGeometry>
        </mxCell>
        <mxCell id="U5FQTq4M9IftU0lJJ3o1-1554" value="提交、查询工资册" style="text;html=1;strokeColor=none;fillColor=none;spacing=5;spacingTop=-20;whiteSpace=wrap;overflow=hidden;rounded=0;shadow=1;fontFamily=Georgia;fontSize=30;rotation=0;" vertex="1" parent="1">
          <mxGeometry x="210" y="750" width="280" height="38.5" as="geometry" />
        </mxCell>
        <mxCell id="U5FQTq4M9IftU0lJJ3o1-1556" value="G端" style="shape=umlActor;verticalLabelPosition=bottom;verticalAlign=top;html=1;outlineConnect=0;shadow=1;fontFamily=Georgia;fontSize=30;strokeWidth=20;gradientColor=none;" vertex="1" parent="1">
          <mxGeometry x="50" y="716.5" width="120" height="190" as="geometry" />
        </mxCell>
        <mxCell id="U5FQTq4M9IftU0lJJ3o1-1557" value="" style="shape=flexArrow;endArrow=classic;html=1;rounded=0;fontFamily=Georgia;fontSize=30;exitX=1;exitY=0.3333333333333333;exitDx=0;exitDy=0;exitPerimeter=0;entryX=0;entryY=0.5;entryDx=0;entryDy=0;" edge="1" parent="1" source="U5FQTq4M9IftU0lJJ3o1-1556" target="U5FQTq4M9IftU0lJJ3o1-1551">
          <mxGeometry width="50" height="50" relative="1" as="geometry">
            <mxPoint x="630" y="840" as="sourcePoint" />
            <mxPoint x="680" y="790" as="targetPoint" />
          </mxGeometry>
        </mxCell>
        <mxCell id="U5FQTq4M9IftU0lJJ3o1-1558" value="ftp服务器" style="rounded=0;whiteSpace=wrap;html=1;shadow=1;fontFamily=Georgia;fontSize=30;strokeWidth=20;fillColor=#60a917;fontColor=#ffffff;strokeColor=#2D7600;" vertex="1" parent="1">
          <mxGeometry x="1550" y="441.5" width="280" height="120" as="geometry" />
        </mxCell>
        <mxCell id="U5FQTq4M9IftU0lJJ3o1-1559" value="" style="endArrow=none;html=1;rounded=0;fontFamily=Georgia;fontSize=30;entryX=0.5;entryY=1;entryDx=0;entryDy=0;exitX=0.5;exitY=0;exitDx=0;exitDy=0;" edge="1" parent="1" source="U5FQTq4M9IftU0lJJ3o1-1542" target="U5FQTq4M9IftU0lJJ3o1-1558">
          <mxGeometry width="50" height="50" relative="1" as="geometry">
            <mxPoint x="1930" y="840" as="sourcePoint" />
            <mxPoint x="1980" y="790" as="targetPoint" />
          </mxGeometry>
        </mxCell>
        <mxCell id="U5FQTq4M9IftU0lJJ3o1-1560" value="内网访问" style="text;html=1;strokeColor=none;fillColor=none;spacing=5;spacingTop=-20;whiteSpace=wrap;overflow=hidden;rounded=0;shadow=1;fontFamily=Georgia;fontSize=30;" vertex="1" parent="1">
          <mxGeometry x="1283.5" y="780" width="190" height="120" as="geometry" />
        </mxCell>
        <mxCell id="U5FQTq4M9IftU0lJJ3o1-1561" value="" style="endArrow=none;html=1;rounded=0;fontFamily=Georgia;fontSize=30;exitX=1;exitY=0.569;exitDx=0;exitDy=0;exitPerimeter=0;" edge="1" parent="1" source="U5FQTq4M9IftU0lJJ3o1-1542" target="U5FQTq4M9IftU0lJJ3o1-1563">
          <mxGeometry width="50" height="50" relative="1" as="geometry">
            <mxPoint x="1690" y="840" as="sourcePoint" />
            <mxPoint x="1830" y="960" as="targetPoint" />
          </mxGeometry>
        </mxCell>
        <mxCell id="U5FQTq4M9IftU0lJJ3o1-1562" value="bank" style="shape=umlActor;verticalLabelPosition=bottom;verticalAlign=top;html=1;outlineConnect=0;shadow=1;fontFamily=Georgia;fontSize=30;strokeWidth=20;gradientColor=none;" vertex="1" parent="1">
          <mxGeometry x="2330" y="716.5" width="115" height="190" as="geometry" />
        </mxCell>
        <mxCell id="U5FQTq4M9IftU0lJJ3o1-1563" value="bankapi" style="rounded=0;whiteSpace=wrap;html=1;shadow=1;fontFamily=Georgia;fontSize=30;strokeWidth=20;fillColor=#ffe6cc;strokeColor=#d79b00;" vertex="1" parent="1">
          <mxGeometry x="1850" y="788.5" width="280" height="80" as="geometry" />
        </mxCell>
        <mxCell id="U5FQTq4M9IftU0lJJ3o1-1567" value="" style="endArrow=classic;html=1;rounded=0;fontFamily=Georgia;fontSize=30;exitX=0.5;exitY=0;exitDx=0;exitDy=0;exitPerimeter=0;entryX=1;entryY=0.5;entryDx=0;entryDy=0;" edge="1" parent="1" source="U5FQTq4M9IftU0lJJ3o1-1562" target="U5FQTq4M9IftU0lJJ3o1-1558">
          <mxGeometry width="50" height="50" relative="1" as="geometry">
            <mxPoint x="1690" y="840" as="sourcePoint" />
            <mxPoint x="1740" y="790" as="targetPoint" />
          </mxGeometry>
        </mxCell>
        <mxCell id="U5FQTq4M9IftU0lJJ3o1-1568" value="专线访问" style="text;html=1;strokeColor=none;fillColor=none;spacing=5;spacingTop=-20;whiteSpace=wrap;overflow=hidden;rounded=0;shadow=1;fontFamily=Georgia;fontSize=30;rotation=-15;" vertex="1" parent="1">
          <mxGeometry x="2180" y="768.5" width="190" height="120" as="geometry" />
        </mxCell>
        <mxCell id="U5FQTq4M9IftU0lJJ3o1-1569" value="" style="endArrow=none;startArrow=classic;html=1;rounded=0;fontFamily=Georgia;fontSize=30;exitX=0;exitY=0.3333333333333333;exitDx=0;exitDy=0;exitPerimeter=0;entryX=1;entryY=0.5;entryDx=0;entryDy=0;" edge="1" parent="1" source="U5FQTq4M9IftU0lJJ3o1-1562" target="U5FQTq4M9IftU0lJJ3o1-1563">
          <mxGeometry width="50" height="50" relative="1" as="geometry">
            <mxPoint x="2130" y="828.5" as="sourcePoint" />
            <mxPoint x="2000" y="1020" as="targetPoint" />
          </mxGeometry>
        </mxCell>
        <mxCell id="U5FQTq4M9IftU0lJJ3o1-1570" value="&lt;div&gt;下载工资册、&lt;/div&gt;&lt;div&gt;上传工资发放结果&lt;/div&gt;" style="text;html=1;strokeColor=none;fillColor=none;spacing=5;spacingTop=-20;whiteSpace=wrap;overflow=hidden;rounded=0;shadow=1;fontFamily=Georgia;fontSize=30;rotation=15;" vertex="1" parent="1">
          <mxGeometry x="1960" y="530" width="270" height="120" as="geometry" />
        </mxCell>
        <mxCell id="U5FQTq4M9IftU0lJJ3o1-1571" value="代理" style="text;html=1;strokeColor=none;fillColor=none;spacing=5;spacingTop=-20;whiteSpace=wrap;overflow=hidden;rounded=0;shadow=1;fontFamily=Georgia;fontSize=30;rotation=-30;" vertex="1" parent="1">
          <mxGeometry x="520" y="1090" width="190" height="120" as="geometry" />
        </mxCell>
        <mxCell id="U5FQTq4M9IftU0lJJ3o1-1573" value="http://182.106.188.24:9520/9521" style="text;html=1;strokeColor=none;fillColor=none;spacing=5;spacingTop=-20;whiteSpace=wrap;overflow=hidden;rounded=0;shadow=1;fontFamily=Georgia;fontSize=30;" vertex="1" parent="1">
          <mxGeometry x="110" y="1300" width="520" height="120" as="geometry" />
        </mxCell>
        <mxCell id="U5FQTq4M9IftU0lJJ3o1-1575" value="http://127.0.0.1:9202/9203" style="text;html=1;strokeColor=none;fillColor=none;spacing=5;spacingTop=-20;whiteSpace=wrap;overflow=hidden;rounded=0;shadow=1;fontFamily=Georgia;fontSize=30;" vertex="1" parent="1">
          <mxGeometry x="585" y="1080" width="395" height="120" as="geometry" />
        </mxCell>
        <mxCell id="U5FQTq4M9IftU0lJJ3o1-1576" value="专户余额校验" style="text;html=1;strokeColor=none;fillColor=none;spacing=5;spacingTop=-20;whiteSpace=wrap;overflow=hidden;rounded=0;shadow=1;fontFamily=Georgia;fontSize=30;rotation=-35;" vertex="1" parent="1">
          <mxGeometry x="240" y="620" width="230" height="130" as="geometry" />
        </mxCell>
        <mxCell id="U5FQTq4M9IftU0lJJ3o1-1577" value="http:182.106.188.24:9700/9701" style="text;html=1;strokeColor=none;fillColor=none;spacing=5;spacingTop=-20;whiteSpace=wrap;overflow=hidden;rounded=0;shadow=1;fontFamily=Georgia;fontSize=30;" vertex="1" parent="1">
          <mxGeometry x="463.5" y="850" width="460" height="120" as="geometry" />
        </mxCell>
        <mxCell id="U5FQTq4M9IftU0lJJ3o1-1578" value="http:182.106.188.24:9600/9601" style="text;html=1;strokeColor=none;fillColor=none;spacing=5;spacingTop=-20;whiteSpace=wrap;overflow=hidden;rounded=0;shadow=1;fontFamily=Georgia;fontSize=30;" vertex="1" parent="1">
          <mxGeometry x="479.5" y="625" width="460" height="120" as="geometry" />
        </mxCell>
        <mxCell id="U5FQTq4M9IftU0lJJ3o1-1581" value="薪莫愁工资云代发平台系统（江西）架构图" style="text;html=1;strokeColor=none;fillColor=none;spacing=5;spacingTop=-20;whiteSpace=wrap;overflow=hidden;rounded=0;shadow=1;fontFamily=Georgia;fontSize=130;" vertex="1" parent="1">
          <mxGeometry x="50" y="230" width="2500" height="150" as="geometry" />
        </mxCell>
        <mxCell id="U5FQTq4M9IftU0lJJ3o1-1583" value="http://192.168.1.28:15000/15001" style="text;html=1;strokeColor=none;fillColor=none;align=center;verticalAlign=middle;whiteSpace=wrap;rounded=0;shadow=1;fontFamily=Georgia;fontSize=30;" vertex="1" parent="1">
          <mxGeometry x="1650" y="868.5" width="730" height="101.5" as="geometry" />
        </mxCell>
        <mxCell id="U5FQTq4M9IftU0lJJ3o1-1584" value="&lt;div&gt;注：正式环境开放端口为测试环境开放端口+1&lt;/div&gt;&lt;div&gt;如：http://192.168.1.28:15000&amp;nbsp;&amp;nbsp; 测试环境&lt;/div&gt;&lt;div&gt;http://192.168.1.28:15001&amp;nbsp; 正式环境&lt;br&gt;&lt;/div&gt;" style="text;html=1;strokeColor=none;fillColor=none;spacing=5;spacingTop=-20;whiteSpace=wrap;overflow=hidden;rounded=0;shadow=1;fontFamily=Georgia;fontSize=50;fontStyle=1" vertex="1" parent="1">
          <mxGeometry x="1440" y="1181" width="1110" height="259" as="geometry" />
        </mxCell>
        <mxCell id="U5FQTq4M9IftU0lJJ3o1-1585" value="" style="endArrow=classic;startArrow=classic;html=1;rounded=0;fontFamily=Georgia;fontSize=50;entryX=0.75;entryY=1;entryDx=0;entryDy=0;exitX=0.5;exitY=0;exitDx=0;exitDy=0;" edge="1" parent="1" source="U5FQTq4M9IftU0lJJ3o1-1563" target="U5FQTq4M9IftU0lJJ3o1-1558">
          <mxGeometry width="50" height="50" relative="1" as="geometry">
            <mxPoint x="1250" y="840" as="sourcePoint" />
            <mxPoint x="1300" y="790" as="targetPoint" />
          </mxGeometry>
        </mxCell>
        <mxCell id="U5FQTq4M9IftU0lJJ3o1-1588" value="" style="whiteSpace=wrap;html=1;aspect=fixed;shadow=0;fontFamily=Georgia;fontSize=50;strokeWidth=20;rounded=0;glass=0;sketch=1;fillColor=none;strokeColor=#001DBC;fontColor=#ffffff;" vertex="1" parent="1">
          <mxGeometry x="430" y="414" width="990" height="990" as="geometry" />
        </mxCell>
      </root>
    </mxGraphModel>
  </diagram>
</mxfile>
